<mxfile host="app.diagrams.net" modified="2023-06-07T11:02:31.061Z" agent="Mozilla/5.0 (Windows NT 10.0; Win64; x64) AppleWebKit/537.36 (KHTML, like Gecko) Chrome/114.0.0.0 Safari/537.36" etag="-EclL2j6oLvvqLY4GLFJ" version="21.3.7" type="device">
  <diagram name="Trang-1" id="VfQyAKDRsD8hTh6thQVx">
    <mxGraphModel dx="794" dy="516" grid="1" gridSize="10" guides="1" tooltips="1" connect="1" arrows="1" fold="1" page="1" pageScale="1" pageWidth="827" pageHeight="1169" math="0" shadow="0">
      <root>
        <mxCell id="0" />
        <mxCell id="1" parent="0" />
        <mxCell id="WI4cZhmf5X80gLliCzwb-1" value="" style="ellipse;whiteSpace=wrap;html=1;" vertex="1" parent="1">
          <mxGeometry x="354" y="390" width="120" height="80" as="geometry" />
        </mxCell>
        <mxCell id="WI4cZhmf5X80gLliCzwb-6" value="" style="edgeStyle=orthogonalEdgeStyle;rounded=0;orthogonalLoop=1;jettySize=auto;html=1;" edge="1" parent="1" source="WI4cZhmf5X80gLliCzwb-2" target="WI4cZhmf5X80gLliCzwb-4">
          <mxGeometry relative="1" as="geometry" />
        </mxCell>
        <mxCell id="WI4cZhmf5X80gLliCzwb-2" value="BEGIN" style="ellipse;whiteSpace=wrap;html=1;" vertex="1" parent="1">
          <mxGeometry x="354" y="10" width="120" height="80" as="geometry" />
        </mxCell>
        <mxCell id="WI4cZhmf5X80gLliCzwb-9" value="" style="edgeStyle=orthogonalEdgeStyle;rounded=0;orthogonalLoop=1;jettySize=auto;html=1;" edge="1" parent="1" source="WI4cZhmf5X80gLliCzwb-3" target="WI4cZhmf5X80gLliCzwb-1">
          <mxGeometry relative="1" as="geometry" />
        </mxCell>
        <mxCell id="WI4cZhmf5X80gLliCzwb-3" value="Display F" style="shape=parallelogram;perimeter=parallelogramPerimeter;whiteSpace=wrap;html=1;fixedSize=1;" vertex="1" parent="1">
          <mxGeometry x="354" y="300" width="120" height="60" as="geometry" />
        </mxCell>
        <mxCell id="WI4cZhmf5X80gLliCzwb-7" value="" style="edgeStyle=orthogonalEdgeStyle;rounded=0;orthogonalLoop=1;jettySize=auto;html=1;" edge="1" parent="1" source="WI4cZhmf5X80gLliCzwb-4" target="WI4cZhmf5X80gLliCzwb-5">
          <mxGeometry relative="1" as="geometry" />
        </mxCell>
        <mxCell id="WI4cZhmf5X80gLliCzwb-4" value="Input C" style="shape=parallelogram;perimeter=parallelogramPerimeter;whiteSpace=wrap;html=1;fixedSize=1;" vertex="1" parent="1">
          <mxGeometry x="354" y="120" width="120" height="60" as="geometry" />
        </mxCell>
        <mxCell id="WI4cZhmf5X80gLliCzwb-8" value="" style="edgeStyle=orthogonalEdgeStyle;rounded=0;orthogonalLoop=1;jettySize=auto;html=1;" edge="1" parent="1" source="WI4cZhmf5X80gLliCzwb-5" target="WI4cZhmf5X80gLliCzwb-3">
          <mxGeometry relative="1" as="geometry" />
        </mxCell>
        <mxCell id="WI4cZhmf5X80gLliCzwb-5" value="f = (c*9)/5+32" style="rounded=0;whiteSpace=wrap;html=1;" vertex="1" parent="1">
          <mxGeometry x="354" y="210" width="120" height="60" as="geometry" />
        </mxCell>
      </root>
    </mxGraphModel>
  </diagram>
</mxfile>
